<svg width="19" height="24" viewBox="0 0 19 24" fill="none" xmlns="http://www.w3.org/2000/svg">
<path d="M15.5533 8.02636C15.3542 5.85151 13.6392 5.13005 11.4765 4.93229L11.465 1.91441L9.79016 1.92238L9.80155 4.86077C9.36122 4.86276 8.91125 4.8744 8.46408 4.88624L8.45304 1.92834L6.77919 1.93604L6.79018 4.95309C6.42769 4.9629 6.07154 4.97202 5.72437 4.9738L5.72412 4.96436L3.4142 4.97406L3.42215 6.93605C3.42215 6.93605 4.65882 6.90457 4.63838 6.92951C5.31666 6.92657 5.53917 7.35761 5.60496 7.73004L5.61821 11.1681C5.66497 11.1681 5.72604 11.1699 5.79532 11.1801C5.73945 11.1805 5.67991 11.1804 5.61836 11.1813L5.63634 15.9977C5.60757 16.232 5.48351 16.606 5.00951 16.6091C5.0311 16.6297 3.79211 16.6144 3.79211 16.6144L3.46765 18.8098L5.64723 18.7997C6.05285 18.7984 6.45195 18.8041 6.84385 18.8049L6.85627 21.8572L8.52928 21.8497L8.51759 18.8297C8.97704 18.838 9.42149 18.8399 9.8556 18.8376L9.86636 21.8436L11.5413 21.8356L11.53 18.7887C14.3451 18.5986 16.3128 17.8116 16.5463 14.9101C16.7349 12.5739 15.7295 11.5366 14.1296 11.123C15.0986 10.5761 15.7021 9.61779 15.5539 8.02644L15.5533 8.02636ZM13.2351 14.5636C13.2447 16.8446 9.68291 16.6016 8.54784 16.608L8.53281 12.5639C9.66817 12.559 13.2261 12.1845 13.2351 14.5636ZM12.4342 8.86149C12.4417 10.9367 9.47115 10.7082 8.52569 10.7126L8.51179 7.0449C9.45725 7.0405 12.4257 6.69717 12.4342 8.86149Z" fill="#FF0039"/>
</svg>
